<?xml version="1.0" standalone="no"?>
<!DOCTYPE svg PUBLIC "-//W3C//DTD SVG 20010904//EN"
 "http://www.w3.org/TR/2001/REC-SVG-20010904/DTD/svg10.dtd">
<svg version="1.0" xmlns="http://www.w3.org/2000/svg"
 width="1024.000000pt" height="1024.000000pt" viewBox="0 0 1024.000000 1024.000000"
 preserveAspectRatio="xMidYMid meet">

<g transform="translate(0.000000,1024.000000) scale(0.100000,-0.100000)"
fill="#000000" stroke="none">
<path d="M0 5120 l0 -5120 5120 0 5120 0 0 5120 0 5120 -5120 0 -5120 0 0
-5120z m5720 4539 c259 -20 545 -64 614 -94 16 -7 35 -11 42 -8 6 2 15 0 19
-6 3 -6 17 -11 30 -11 30 0 355 -106 397 -130 10 -6 22 -10 28 -10 9 0 37 -12
190 -82 146 -67 327 -162 393 -206 23 -16 49 -32 57 -36 56 -26 306 -206 330
-237 3 -4 29 -25 58 -47 97 -72 334 -300 508 -488 333 -358 607 -766 759
-1129 56 -131 131 -349 186 -535 21 -74 46 -157 54 -184 38 -124 145 -720 131
-733 -2 -2 -36 16 -74 42 l-70 47 -17 111 c-53 347 -134 664 -248 972 -83 224
-318 658 -461 852 -17 23 -44 61 -61 84 -73 102 -311 392 -404 494 -80 87
-214 218 -280 275 -35 30 -76 66 -91 80 -15 14 -43 33 -62 43 -20 11 -50 32
-67 48 -18 16 -35 29 -39 29 -4 0 -16 8 -27 16 -19 15 -19 15 10 10 24 -5 26
-4 10 3 -11 5 -30 10 -43 10 -12 1 -25 8 -28 16 -4 8 -10 12 -15 9 -5 -3 -9 0
-9 5 0 6 -7 11 -15 11 -8 0 -15 7 -15 16 0 9 -6 14 -13 11 -8 -3 -20 -1 -28 4
-10 6 -10 9 -1 9 6 0 12 9 12 20 0 27 -16 25 -24 -2 l-6 -23 -19 22 c-10 12
-21 20 -24 17 -3 -3 -46 21 -97 52 -72 45 -89 59 -75 64 12 4 15 9 8 13 -7 4
-14 3 -18 -3 -9 -15 -29 -12 -51 8 -10 10 -23 19 -27 19 -16 2 -101 48 -121
66 -11 9 -28 17 -37 17 -10 0 -24 7 -33 15 -8 8 -19 15 -25 15 -5 0 -25 9 -43
20 -19 11 -61 28 -95 39 -34 11 -76 27 -95 37 -18 9 -53 23 -78 30 -66 18
-193 65 -206 75 -5 4 -21 6 -35 3 -16 -4 -20 -3 -11 3 9 7 2 10 -20 10 -18 0
-64 7 -103 16 -99 24 -202 45 -259 53 -60 8 -61 -13 -2 -30 21 -6 35 -14 31
-17 -3 -4 4 -7 17 -7 21 1 162 -52 263 -98 22 -10 42 -18 45 -19 14 -3 122
-46 170 -68 65 -30 153 -69 160 -72 5 -2 96 -43 160 -73 54 -25 264 -143 270
-152 3 -4 14 -10 26 -14 11 -3 29 -14 40 -24 10 -10 37 -29 59 -42 42 -25 138
-96 191 -139 17 -14 51 -42 75 -61 70 -55 519 -507 596 -600 169 -205 289
-404 445 -740 271 -585 432 -1079 504 -1553 9 -60 14 -110 12 -112 -9 -9 -159
109 -163 129 -3 11 -16 80 -30 151 -28 141 -99 422 -141 556 -105 335 -275
670 -493 974 -214 298 -558 659 -808 848 -34 26 -68 53 -75 60 -7 7 -58 45
-113 84 -55 39 -108 78 -117 87 -10 9 -20 16 -22 16 -2 0 -55 31 -118 68 -100
61 -289 158 -433 222 -27 12 -68 31 -89 41 -22 11 -46 19 -53 19 -7 0 -13 5
-13 10 0 6 -6 10 -14 10 -8 0 -27 5 -43 11 -22 8 -25 12 -13 20 12 8 10 10 -9
6 -13 -3 -31 -2 -40 3 -9 4 -56 22 -106 40 -49 17 -106 38 -125 45 -19 8 -53
19 -75 26 -22 6 -44 15 -49 20 -6 5 -20 9 -32 9 -12 0 -38 7 -57 15 -20 8 -53
15 -74 16 -33 1 -35 2 -13 9 24 7 23 7 -10 13 -19 3 -55 6 -80 5 -25 -1 -125
6 -223 15 -98 10 -208 17 -245 18 -57 0 -63 2 -39 11 34 12 36 27 2 20 l-26
-4 5 88 c3 49 2 105 -3 124 -9 33 -9 32 -10 -20 -1 -32 -7 -65 -16 -78 -12
-16 -13 -27 -5 -41 5 -11 10 -31 10 -45 0 -21 -5 -26 -25 -26 -18 0 -25 5 -25
20 0 11 5 17 13 15 9 -4 12 10 12 52 0 47 -3 58 -17 61 -19 4 -26 52 -8 52 6
0 10 16 10 35 0 19 -4 35 -10 35 -5 0 -10 7 -10 16 0 8 5 12 10 9 6 -3 10 1
10 11 0 13 -3 14 -15 4 -8 -7 -15 -25 -15 -41 0 -21 -4 -27 -15 -23 -12 5 -15
-2 -15 -28 0 -19 6 -40 13 -47 10 -10 7 -12 -13 -9 -23 3 -25 7 -22 43 2 22
10 45 18 51 8 6 14 17 13 25 0 10 -2 11 -6 2 -2 -7 -15 -13 -28 -13 -26 0 -39
-39 -24 -78 12 -32 11 -102 -1 -102 -5 0 -10 20 -10 44 0 25 -4 47 -9 51 -6 3
-8 14 -6 25 2 11 0 20 -6 20 -5 0 -8 3 -8 8 5 32 -3 71 -14 67 -6 -3 -18 4
-26 16 -11 19 -11 21 4 15 9 -3 21 -3 27 0 14 9 -11 24 -41 24 -21 0 -23 -3
-18 -35 4 -25 2 -35 -7 -35 -8 0 -16 -13 -19 -30 -4 -16 -10 -30 -15 -30 -5 0
-7 11 -4 25 2 13 1 33 -3 42 -7 15 -9 13 -15 -12 l-8 -30 -2 35 c-3 34 -3 34
-10 -10 l-7 -45 -1 54 c-2 47 0 52 16 46 13 -5 14 -3 5 6 -15 15 -33 3 -33
-22 0 -10 -5 -19 -11 -19 -7 0 -9 10 -7 25 4 17 1 25 -8 25 -8 0 -14 -9 -14
-20 0 -11 -4 -20 -10 -20 -5 0 -10 7 -10 15 0 11 -11 15 -40 15 -28 0 -40 -4
-40 -15 0 -11 -6 -12 -22 -6 -21 7 -83 0 -120 -14 -10 -4 -18 -3 -18 3 0 17
366 72 502 75 43 1 78 5 78 9 0 16 524 21 710 7z m-1310 -87 c0 -5 -9 -17 -20
-27 -19 -17 -19 -17 -7 9 12 25 27 35 27 18z m290 -84 c0 -25 3 -53 6 -62 3
-9 1 -16 -5 -16 -6 0 -11 15 -11 33 0 33 -29 125 -30 95 0 -10 -6 -18 -14 -18
-11 0 -12 5 -3 24 11 22 12 23 34 7 18 -13 22 -26 23 -63z m-425 52 c4 -6 -6
-10 -22 -10 -22 0 -25 2 -13 10 19 12 27 12 35 0z m611 -140 c3 -25 1 -61 -4
-80 -9 -32 -10 -29 -11 35 -1 39 -3 95 -6 125 l-4 55 9 -45 c5 -25 12 -65 16
-90z m-36 87 c0 -5 -4 -5 -10 -2 -5 3 -10 14 -10 23 0 15 2 15 10 2 5 -8 10
-19 10 -23z m-843 -3 c-3 -3 -12 -4 -19 -1 -8 3 -5 6 6 6 11 1 17 -2 13 -5z
m663 -24 c0 -11 -4 -20 -10 -20 -5 0 -10 9 -10 20 0 11 5 20 10 20 6 0 10 -9
10 -20z m70 -17 c0 -7 -7 -13 -16 -13 -11 0 -14 5 -10 16 3 9 6 21 6 27 0 16
20 -14 20 -30z m95 -69 c-9 -9 -19 -13 -23 -9 -4 4 -1 10 6 12 6 3 12 17 12
33 0 16 3 37 8 47 5 13 8 6 10 -25 2 -29 -2 -47 -13 -58z m-55 56 c0 -19 -5
-30 -14 -30 -12 0 -12 5 -3 30 6 17 13 30 14 30 2 0 3 -13 3 -30z m-200 -21
c0 -6 6 -9 14 -6 15 6 26 -22 25 -63 -1 -22 -2 -22 -8 5 -4 21 -13 31 -29 33
-22 3 -33 42 -12 42 6 0 10 -5 10 -11z m99 -3 c10 -11 7 -14 -14 -12 -14 0
-25 7 -25 14 0 16 25 15 39 -2z m228 -38 c-3 -7 -5 -2 -5 12 0 14 2 19 5 13 2
-7 2 -19 0 -25z m143 11 c0 -5 -4 -9 -10 -9 -5 0 -10 7 -10 16 0 8 5 12 10 9
6 -3 10 -10 10 -16z m-513 -21 c-3 -8 -6 -5 -6 6 -1 11 2 17 5 13 3 -3 4 -12
1 -19z m-190 -20 c-3 -8 -6 -5 -6 6 -1 11 2 17 5 13 3 -3 4 -12 1 -19z m160
-10 c-3 -7 -5 -2 -5 12 0 14 2 19 5 13 2 -7 2 -19 0 -25z m511 -20 c-1 -44 -2
-46 -5 -15 -2 20 -8 37 -14 37 -5 0 -9 7 -9 15 0 8 7 15 15 15 12 0 15 -12 13
-52z m-241 10 c-3 -8 -6 -5 -6 6 -1 11 2 17 5 13 3 -3 4 -12 1 -19z m170 -35
c-3 -10 -5 -4 -5 12 0 17 2 24 5 18 2 -7 2 -21 0 -30z m43 7 c0 -16 -4 -30
-10 -30 -5 0 -10 14 -10 30 0 17 5 30 10 30 6 0 10 -13 10 -30z m-345 -10 c-5
-8 -11 -8 -17 -2 -6 6 -7 16 -3 22 5 8 11 8 17 2 6 -6 7 -16 3 -22z m22 8 c-3
-8 -6 -5 -6 6 -1 11 2 17 5 13 3 -3 4 -12 1 -19z m433 -49 c0 -11 -90 -12
-108 0 -8 5 10 8 47 9 34 0 61 -3 61 -9z m-310 -9 c12 -8 10 -10 -10 -10 -14
0 -32 5 -40 10 -12 8 -10 10 10 10 14 0 32 -5 40 -10z m70 0 c0 -5 -4 -10 -10
-10 -5 0 -10 5 -10 10 0 6 5 10 10 10 6 0 10 -4 10 -10z m67 4 c-3 -3 -12 -4
-19 -1 -8 3 -5 6 6 6 11 1 17 -2 13 -5z m-319 -21 c-10 -2 -26 -2 -35 0 -10 3
-2 5 17 5 19 0 27 -2 18 -5z m-301 -29 c-3 -3 -12 -4 -19 -1 -8 3 -5 6 6 6 11
1 17 -2 13 -5z m1380 0 c-3 -3 -12 -4 -19 -1 -8 3 -5 6 6 6 11 1 17 -2 13 -5z
m-517 -277 c0 -8 -11 -27 -25 -43 -24 -28 -32 -24 -19 10 3 9 12 16 20 16 8 0
14 7 14 15 0 8 2 15 5 15 3 0 5 -6 5 -13z m52 -54 c11 -27 24 -50 28 -53 9 -7
31 -72 26 -78 -3 -2 -8 7 -12 22 -3 14 -12 26 -19 26 -7 0 -15 12 -17 28 -3
15 -13 44 -22 65 -9 20 -14 37 -11 37 4 0 16 -21 27 -47z m-1907 17 c-3 -5
-12 -10 -18 -10 -7 0 -6 4 3 10 19 12 23 12 15 0z m1791 -98 c-12 -11 -16 6
-9 39 l8 34 3 -33 c2 -19 1 -36 -2 -40z m-40 -34 c-19 -26 -22 -7 -4 25 7 13
13 17 15 10 3 -7 -3 -23 -11 -35z m-2199 -20 c-3 -8 -6 -5 -6 6 -1 11 2 17 5
13 3 -3 4 -12 1 -19z m-169 -112 c-16 -8 -34 -18 -40 -21 -7 -4 -2 3 12 14 14
11 32 21 40 21 8 0 3 -7 -12 -14z m152 -11 c-7 -9 -15 -13 -19 -10 -3 3 1 10
9 15 21 14 24 12 10 -5z m2490 5 c0 -5 -5 -10 -11 -10 -5 0 -7 5 -4 10 3 6 8
10 11 10 2 0 4 -4 4 -10z m-3070 -24 c0 -2 -7 -7 -16 -10 -8 -3 -12 -2 -9 4 6
10 25 14 25 6z m3116 -89 c3 -26 3 -28 -5 -12 -5 11 -10 16 -10 11 -2 -26 -30
34 -31 64 l0 35 20 -33 c12 -19 23 -48 26 -65z m-3018 69 c-7 -8 -15 -12 -17
-11 -5 6 10 25 20 25 5 0 4 -6 -3 -14z m427 -6 c-10 -11 -20 -18 -23 -16 -5 6
21 35 32 36 5 0 1 -9 -9 -20z m2175 0 c0 -5 -6 -15 -13 -22 -7 -8 -10 -28 -7
-53 5 -32 7 -36 13 -19 9 26 52 26 52 -1 0 -10 7 -21 15 -23 20 -7 40 -28 40
-42 0 -6 5 -8 10 -5 6 3 10 17 10 31 0 35 16 30 24 -8 5 -24 9 -29 15 -19 11
17 30 6 41 -23 6 -15 8 -2 8 42 0 35 3 66 6 70 3 3 6 -18 6 -46 0 -56 19 -73
21 -19 l2 32 6 -33 c6 -31 7 -32 26 -18 18 14 18 15 3 16 -22 0 -23 29 -3 56
14 18 14 17 15 -13 0 -38 14 -50 30 -26 8 13 13 14 16 6 11 -27 24 -11 25 30
2 32 3 35 6 13 5 -34 19 -50 50 -58 20 -5 22 -3 18 20 l-5 27 12 -25 c109
-229 132 -383 84 -572 -21 -80 -54 -159 -152 -361 -70 -141 -130 -274 -135
-295 -5 -20 -14 -108 -19 -195 -5 -87 -16 -206 -26 -264 -9 -58 -14 -138 -12
-179 3 -64 9 -85 50 -162 32 -63 44 -97 41 -116 -3 -14 -9 -26 -14 -26 -5 0
-9 -7 -9 -15 0 -8 -4 -15 -9 -15 -5 0 -13 -9 -16 -20 -3 -11 -11 -20 -17 -20
-5 0 -18 -10 -29 -22 -10 -13 -18 -17 -19 -10 0 6 -5 12 -11 12 -6 0 -9 -7 -5
-15 3 -8 2 -15 -2 -15 -14 0 -27 15 -39 42 -7 15 -28 38 -48 50 -55 36 -54 55
4 171 44 89 52 114 63 200 9 75 9 113 0 160 -6 34 -11 100 -11 147 1 145 -59
364 -204 735 -92 238 -102 276 -101 395 0 107 15 178 54 264 10 23 22 52 26
66 7 24 7 24 15 5 6 -16 8 -13 9 15 0 19 10 51 21 70 11 20 17 26 14 13 -4
-13 -1 -31 4 -40 9 -14 11 -7 9 33 -2 54 7 78 24 68 8 -5 9 -1 5 10 -4 10 -3
15 3 11 6 -3 10 -10 10 -15z m-2440 -85 c0 -8 -9 -13 -20 -12 -23 1 -25 8 -8
25 13 13 28 7 28 -13z m2545 -44 c-10 -9 -25 14 -24 37 l1 27 13 -30 c7 -16
12 -32 10 -34z m-2935 35 c0 -3 -4 -8 -10 -11 -5 -3 -10 -1 -10 4 0 6 5 11 10
11 6 0 10 -2 10 -4z m318 -36 c-7 -10 -14 -17 -17 -15 -4 4 18 35 25 35 2 0
-1 -9 -8 -20z m-390 -46 c0 -15 -4 -22 -10 -16 -5 5 -6 16 -2 25 9 23 12 21
12 -9z m376 -16 c-8 -13 -21 -9 -28 8 -9 25 4 37 19 17 7 -10 11 -21 9 -25z
m166 32 c0 -16 -50 -63 -58 -55 -4 4 -1 10 6 12 7 3 17 16 22 29 9 24 30 33
30 14z m-210 -20 c0 -5 -5 -10 -11 -10 -5 0 -7 5 -4 10 3 6 8 10 11 10 2 0 4
-4 4 -10z m-355 -38 c-1 -1 -10 0 -19 4 -13 5 -14 9 -4 21 10 13 13 13 19 -4
3 -10 5 -19 4 -21z m303 -16 c-13 -13 -25 -22 -27 -20 -6 5 30 44 41 44 5 0
-2 -11 -14 -24z m-335 -16 c7 -1 2 -9 -10 -19 -14 -12 -32 -17 -45 -14 -22 4
-22 4 -4 -11 11 -9 17 -19 13 -22 -4 -4 -2 -13 5 -21 11 -14 21 -3 47 55 12
25 22 27 38 11 13 -13 6 -39 -9 -39 -6 0 -5 6 2 15 10 12 9 15 -5 15 -13 0
-16 -6 -11 -24 5 -20 -5 -35 -52 -84 -83 -87 -138 -153 -214 -256 -37 -50 -71
-95 -76 -101 -9 -12 -47 -78 -87 -150 -15 -27 -45 -79 -65 -115 -98 -169 -281
-562 -335 -720 -59 -171 -160 -512 -205 -695 -24 -93 -46 -174 -50 -178 -9
-11 -120 35 -120 49 0 42 75 359 132 554 34 117 119 356 168 470 39 91 158
336 197 405 31 55 97 168 116 200 21 35 195 294 207 307 6 7 40 53 77 101 51
67 71 87 86 83 14 -3 16 -1 7 8 -13 17 47 79 69 71 11 -4 11 -3 2 9 -9 11 -9
16 1 22 7 5 16 9 20 9 3 0 10 4 15 9 5 6 2 6 -7 1 -8 -5 5 13 30 38 31 32 46
42 48 32 2 -8 9 -15 15 -15z m521 14 c3 -8 2 -12 -4 -9 -6 3 -10 0 -10 -8 0
-19 -46 -61 -59 -53 -13 8 -3 35 23 63 25 27 42 29 50 7z m-444 -4 c0 -13 -11
-13 -30 0 -12 8 -11 10 8 10 12 0 22 -4 22 -10z m220 -34 c0 -3 -4 -8 -10 -11
-5 -3 -10 -1 -10 4 0 6 5 11 10 11 6 0 10 -2 10 -4z m137 -11 c-4 -8 -2 -17 3
-20 6 -4 10 -9 10 -14 0 -11 -83 -96 -91 -94 -5 2 -6 -3 -4 -10 3 -6 -12 -31
-34 -54 -21 -24 -37 -43 -34 -43 3 0 -9 -17 -25 -37 -92 -117 -231 -359 -384
-668 -54 -110 -103 -208 -109 -218 -44 -80 -228 -536 -289 -717 -27 -82 -135
-449 -170 -578 -10 -40 -13 -43 -37 -37 -14 3 -35 13 -48 21 -23 15 -23 16 -9
77 26 110 132 490 163 582 121 366 290 768 470 1119 64 125 83 176 48 134 -74
-92 -139 -186 -207 -298 -81 -136 -275 -516 -305 -600 -100 -275 -159 -469
-235 -765 -22 -88 -43 -166 -45 -173 -3 -9 -17 -6 -54 12 l-49 25 68 263 c121
474 218 758 339 995 183 359 384 628 702 943 124 123 123 122 119 73 -1 -13 3
-23 9 -23 6 0 11 5 11 11 0 6 7 9 15 5 22 -8 65 11 65 29 0 8 6 15 14 15 8 0
16 10 18 23 2 18 8 21 36 19 18 -2 32 1 32 7 0 6 3 11 6 11 3 0 4 -7 1 -15z
m-440 -11 c-3 -3 -12 -4 -19 -1 -8 3 -5 6 6 6 11 1 17 -2 13 -5z m2464 -517
c131 -65 231 -182 324 -380 147 -310 188 -680 93 -835 -33 -53 -125 -135 -186
-165 -52 -26 -65 -28 -152 -25 -76 2 -105 8 -143 27 -108 53 -147 111 -147
219 0 59 4 75 33 122 58 99 117 91 117 -14 1 -95 66 -179 163 -208 55 -17 153
1 209 39 54 35 98 117 98 180 0 41 -3 45 -46 71 -86 50 -90 72 -22 99 l40 16
-4 71 c-5 108 -31 151 -154 257 -158 135 -240 169 -412 169 -95 0 -148 -18
-167 -56 -19 -39 -37 -54 -77 -64 -49 -14 -63 -43 -78 -165 -12 -101 -28 -125
-84 -125 -86 0 -200 155 -212 290 -18 186 92 347 313 459 93 47 161 61 298 58
117 -2 122 -3 196 -40z m1700 -11 c128 -27 260 -116 349 -234 67 -89 90 -153
90 -248 0 -137 -40 -224 -138 -302 -63 -50 -109 -69 -131 -55 -10 6 -23 42
-33 92 -21 97 -65 188 -109 225 -58 49 -129 79 -199 83 -52 4 -94 -3 -204 -31
-158 -41 -216 -69 -297 -144 -67 -62 -109 -138 -109 -198 0 -48 10 -58 77 -84
35 -13 49 -24 51 -40 4 -26 -8 -36 -63 -51 -59 -16 -75 -35 -75 -86 0 -58 20
-102 63 -140 43 -38 91 -53 167 -53 76 0 124 15 160 51 46 47 62 86 69 168 4
54 11 77 23 85 25 15 64 -17 100 -81 70 -123 20 -276 -107 -335 -42 -20 -66
-23 -155 -22 -130 0 -195 23 -268 92 -62 59 -89 112 -102 199 -28 197 3 376
110 625 120 281 241 420 415 480 63 22 222 24 316 4z m-2170 -1238 c98 -45
171 -128 168 -192 -1 -23 -4 -17 -13 27 -10 42 -73 105 -140 139 -72 36 -190
49 -275 28 -58 -14 -163 -77 -203 -123 -29 -33 -47 -32 -29 2 10 18 9 20 -6
16 -10 -3 -4 1 13 9 17 8 36 22 43 30 8 9 20 16 27 16 8 0 14 4 14 8 0 5 17
17 38 26 118 53 265 59 363 14z m2571 8 c26 -8 57 -20 70 -27 29 -15 148 -91
148 -94 0 -2 -9 -1 -20 2 -20 5 -20 5 2 -33 12 -22 28 -43 35 -47 7 -4 13 -14
13 -21 0 -7 10 -24 23 -37 13 -13 40 -46 62 -72 65 -81 172 -147 241 -149 53
-1 60 -18 7 -18 -64 0 -150 49 -239 136 l-81 79 0 -46 c-1 -87 -82 -190 -148
-188 l-30 1 32 8 c83 19 128 86 127 190 0 77 -19 121 -77 182 -82 86 -200 138
-312 138 -86 0 -192 -36 -242 -83 -13 -11 -23 -16 -23 -11 0 10 53 54 88 73
12 6 22 9 22 5 0 -3 6 -1 14 5 38 32 194 35 288 7z m-3152 -76 c0 -11 11 -22
28 -28 l27 -10 -35 -1 c-20 -1 -41 4 -48 11 -16 16 -15 45 1 51 18 6 27 -1 27
-23z m3468 6 c5 -26 -17 -46 -52 -46 l-31 0 25 13 c14 7 26 23 28 35 4 26 25
25 30 -2z m-3179 -19 c-2 -1 -13 -9 -24 -17 -19 -14 -19 -14 -6 3 7 9 18 17
24 17 6 0 8 -1 6 -3z m51 -24 c-5 -10 -19 -39 -30 -65 -20 -50 -57 -71 -89
-51 -22 14 -25 60 -6 90 19 29 32 25 14 -5 -15 -24 -5 -52 19 -52 16 0 74 49
63 53 -7 3 23 47 31 47 5 0 4 -8 -2 -17z m147 11 c-3 -3 -12 -4 -19 -1 -8 3
-5 6 6 6 11 1 17 -2 13 -5z m2730 -44 c17 -21 16 -65 -1 -79 -29 -24 -69 -9
-93 34 -27 48 -32 85 -8 65 8 -7 15 -17 15 -23 0 -17 32 -47 51 -47 32 0 34
39 2 73 -24 27 -25 29 -3 12 13 -11 30 -27 37 -35z m-3335 2 c29 -26 31 -49 8
-91 -16 -30 -20 -26 -10 10 16 55 -16 99 -72 99 -36 -1 -70 -33 -78 -76 -7
-35 -8 -36 -9 -9 -1 38 23 73 62 90 37 16 64 9 99 -23z m545 2 c-15 -15 -27
-31 -27 -37 0 -6 -3 -7 -6 -4 -4 4 6 23 21 42 15 20 29 34 33 31 3 -3 -7 -18
-21 -32z m2289 8 c-17 -16 -18 -16 -5 5 7 12 15 20 18 17 3 -2 -3 -12 -13 -22z
m134 25 c0 -2 -10 -12 -22 -23 l-23 -19 19 23 c18 21 26 27 26 19z m804 -17
c30 -11 56 -58 55 -97 -1 -23 -3 -21 -9 11 -9 46 -49 86 -86 86 -53 0 -96 -79
-59 -110 20 -17 50 -8 50 15 0 23 28 27 32 5 7 -39 -52 -60 -87 -32 -32 26
-33 71 -2 105 27 29 61 34 106 17z m-624 -20 c0 -5 -2 -10 -4 -10 -3 0 -8 5
-11 10 -3 6 -1 10 4 10 6 0 11 -4 11 -10z m-2965 -47 c-27 -51 -39 -128 -27
-172 5 -23 7 -41 3 -41 -13 0 -29 69 -25 103 l4 32 -25 -30 c-18 -22 -25 -25
-25 -13 0 9 14 29 30 45 17 15 30 34 30 41 0 16 30 62 41 62 4 0 1 -12 -6 -27z
m2632 5 c-3 -8 -6 -5 -6 6 -1 11 2 17 5 13 3 -3 4 -12 1 -19z m-2064 -49 c-5
-5 -7 7 -4 29 5 34 6 35 9 8 2 -16 0 -32 -5 -37z m-814 29 c-3 -28 2 -37 24
-41 16 -3 14 -5 -9 -6 -33 -1 -48 16 -38 44 7 18 26 20 23 3z m2868 -40 c-3
-8 -6 -5 -6 6 -1 11 2 17 5 13 3 -3 4 -12 1 -19z m370 -10 c-3 -8 -6 -5 -6 6
-1 11 2 17 5 13 3 -3 4 -12 1 -19z m-2310 -10 c-3 -8 -6 -5 -6 6 -1 11 2 17 5
13 3 -3 4 -12 1 -19z m-1285 -30 c49 -53 51 -82 3 -40 -19 17 -50 34 -70 38
-51 9 -45 41 9 43 11 1 36 -18 58 -41z m225 36 c-3 -3 -12 -4 -19 -1 -8 3 -5
6 6 6 11 1 17 -2 13 -5z m943 2 c0 -3 -4 -8 -10 -11 -5 -3 -10 -1 -10 4 0 6 5
11 10 11 6 0 10 -2 10 -4z m3423 -10 c24 -19 22 -23 -18 -30 -19 -4 -48 -18
-64 -31 -40 -34 -45 -31 -21 14 12 24 31 43 47 49 36 13 35 14 56 -2z m-4444
-9 c-2 -1 -15 -11 -29 -22 l-25 -20 19 23 c11 12 24 22 29 22 6 0 8 -1 6 -3z
m154 -26 c9 -16 16 -44 16 -63 l-1 -33 -7 37 c-4 20 -15 48 -25 62 -9 14 -13
26 -8 26 4 0 15 -13 25 -29z m511 11 c2 -4 -10 -6 -29 -4 -18 2 -43 -1 -56 -8
-23 -11 -23 -10 -5 4 21 17 81 22 90 8z m2919 1 c-7 -2 -19 -2 -25 0 -7 3 -2
5 12 5 14 0 19 -2 13 -5z m696 -46 c-2 -3 -15 10 -28 27 l-24 31 28 -27 c16
-15 27 -29 24 -31z m-3569 1 c11 -18 20 -42 19 -53 0 -12 -6 -5 -15 19 -8 21
-19 45 -25 52 -6 8 -9 14 -5 14 3 0 15 -15 26 -32z m3340 -8 c-5 -22 -8 -27
-9 -13 -1 21 9 56 14 51 2 -2 0 -19 -5 -38z m-3736 -27 c-21 -19 -48 -42 -59
-52 -27 -25 -84 -53 -97 -49 -6 2 13 18 43 35 30 17 74 51 99 75 25 24 47 39
49 34 2 -5 -14 -25 -35 -43z m586 32 c7 -9 8 -15 2 -15 -5 0 -12 7 -16 15 -3
8 -4 15 -2 15 2 0 9 -7 16 -15z m3709 -12 c24 -9 96 -42 160 -74 131 -67 187
-76 235 -38 14 11 26 16 26 11 0 -5 -12 -17 -26 -27 -50 -33 -121 -18 -284 60
-131 63 -152 70 -220 74 -57 4 -68 6 -45 11 39 9 99 3 154 -17z m-4909 8 c-66
-5 -91 -14 -212 -74 -75 -37 -143 -67 -150 -67 -7 0 54 34 137 75 149 75 150
75 225 73 l75 -1 -75 -6z m928 -40 c-2 -20 -9 -27 -29 -29 -14 -2 -31 4 -39
12 -8 11 -9 16 -1 16 6 0 11 6 11 14 0 17 18 25 43 18 13 -3 17 -12 15 -31z
m3792 35 c0 -2 -7 -7 -16 -10 -8 -3 -12 -2 -9 4 6 10 25 14 25 6z m552 -6
c-12 -5 -27 -20 -32 -32 -5 -13 -9 -17 -9 -9 -1 20 29 51 48 50 10 0 8 -4 -7
-9z m-1326 -22 c10 -12 13 -18 7 -14 -8 4 -13 1 -13 -8 0 -9 -9 -16 -20 -16
-11 0 -20 7 -20 16 0 8 -4 13 -9 10 -7 -5 -8 11 -2 32 4 11 42 -2 57 -20z
m-3616 -36 c-8 -46 8 -62 65 -62 19 0 35 -4 35 -10 0 -5 -18 -10 -40 -10 -31
0 -47 6 -65 26 -14 15 -25 30 -25 35 0 4 -3 14 -6 22 -6 16 23 50 36 42 4 -2
4 -22 0 -43z m3257 42 c-3 -3 -12 -4 -19 -1 -8 3 -5 6 6 6 11 1 17 -2 13 -5z
m-44 -11 c-7 -2 -19 -2 -25 0 -7 3 -2 5 12 5 14 0 19 -2 13 -5z m251 -33 c4
-25 3 -31 -4 -20 -5 8 -10 26 -10 39 0 32 6 24 14 -19z m707 30 c16 -9 28 -50
15 -50 -2 0 -11 -3 -19 -6 -11 -4 -16 4 -19 30 -4 40 -4 40 23 26z m-330 -30
c25 -1 65 -38 53 -50 -19 -19 -71 8 -83 42 -14 40 -13 47 3 26 7 -10 19 -18
27 -18z m1166 -7 c-3 -10 -5 -4 -5 12 0 17 2 24 5 18 2 -7 2 -21 0 -30z
m-5305 -13 c3 -21 0 -30 -9 -30 -9 0 -11 8 -7 25 5 21 3 25 -18 25 -13 0 -45
-13 -71 -30 -51 -32 -77 -38 -77 -17 0 34 43 51 141 55 34 2 37 -1 41 -28z
m638 22 c0 -5 -3 -12 -7 -16 -5 -4 -8 -13 -8 -19 0 -12 -50 -28 -59 -19 -14
14 -3 33 27 46 39 17 47 19 47 8z m4261 -13 c19 -9 35 -46 25 -56 -3 -3 -32
10 -65 30 -32 21 -70 37 -84 37 -21 0 -24 -4 -19 -26 3 -17 1 -25 -5 -21 -6 4
-13 19 -16 33 l-5 27 76 -7 c41 -4 83 -11 93 -17z m-3916 -20 c-9 -17 -18 -29
-21 -27 -6 6 20 58 29 58 4 0 0 -14 -8 -31z m780 11 c4 -6 -15 -10 -52 -9 -41
1 -50 3 -33 8 41 11 78 12 85 1z m100 1 c38 -8 37 -9 -22 -10 -36 -1 -63 3
-63 9 0 12 30 12 85 1z m144 -1 c22 -13 -56 -17 -81 -4 -21 11 -19 12 23 12
25 0 51 -3 58 -8z m1536 -6 c19 -12 25 -25 25 -50 0 -35 -13 -46 -24 -18 -3 9
-6 27 -6 41 0 23 -3 25 -40 21 -45 -4 -55 8 -12 15 15 2 28 5 30 6 1 0 14 -6
27 -15z m-2365 -1 c-19 -3 -45 -14 -57 -25 -23 -21 -29 -15 -17 16 5 12 19 16
58 14 40 -1 43 -2 16 -5z m1079 -3 c-19 -5 -57 -5 -85 -1 -45 8 -42 9 36 9 67
0 78 -2 49 -8z m716 1 c28 -4 -110 -6 -304 -4 -195 2 -357 6 -359 8 -8 7 610
4 663 -4z m95 -1 c-20 -13 -40 -13 -40 0 0 6 12 10 28 10 21 0 24 -2 12 -10z
m185 5 c-24 -8 -165 -11 -165 -3 0 4 39 8 88 7 48 0 83 -2 77 -4z m148 -2 c-7
-2 -21 -2 -30 0 -10 3 -4 5 12 5 17 0 24 -2 18 -5z m-1310 -10 c-7 -2 -19 -2
-25 0 -7 3 -2 5 12 5 14 0 19 -2 13 -5z m-2554 -34 l56 -6 -51 -2 c-37 -1 -57
4 -71 17 -10 9 -12 13 -4 7 8 -5 39 -13 70 -16z m3211 16 c0 -8 -4 -15 -10
-15 -5 0 -10 7 -10 15 0 8 5 15 10 15 6 0 10 -7 10 -15z m1715 5 c-3 -5 -10
-10 -16 -10 -5 0 -9 5 -9 10 0 6 7 10 16 10 8 0 12 -4 9 -10z m-651 -29 c-2
-3 -12 3 -22 13 -16 17 -16 18 5 5 12 -7 20 -15 17 -18z m-2864 10 c0 -5 -7
-12 -16 -15 -14 -5 -15 -4 -4 9 14 17 20 19 20 6z m-310 -62 c0 -5 -334 -9
-866 -9 -588 0 -863 3 -859 10 8 14 1725 13 1725 -1z m5180 1 c0 -7 -292 -10
-855 -10 -563 0 -855 3 -855 10 0 7 292 10 855 10 563 0 855 -3 855 -10z m100
-101 c0 -19 -67 -19 -3562 -17 -2701 2 -3562 6 -3565 15 -2 6 4 13 13 15 10 1
1614 4 3566 4 3480 2 3548 2 3548 -17z m17 -388 c-34 -16 -44 -37 -11 -24 8 3
14 0 14 -5 0 -6 16 -14 36 -18 19 -4 38 -13 41 -20 3 -8 9 -12 14 -9 4 3 17 0
28 -7 17 -10 24 -9 43 8 31 28 53 41 43 25 -5 -9 -1 -12 11 -11 36 4 42 0 37
-22 -4 -19 -2 -17 11 6 9 15 16 44 16 62 l0 34 138 0 c75 0 144 -5 152 -10 13
-8 15 -47 15 -247 l0 -238 -145 0 -145 0 -3 85 c-2 52 -8 87 -15 92 -7 4 -56
8 -109 8 -83 0 -99 -3 -106 -17 -4 -10 -5 -83 -2 -163 l5 -145 251 -5 c192 -4
255 -8 267 -19 15 -12 17 -49 17 -345 0 -182 -4 -348 -9 -368 -9 -38 -51 -84
-155 -171 -43 -37 -47 -38 -31 -14 16 24 16 30 4 38 -10 6 -19 3 -31 -11 -20
-24 -25 -25 -44 -5 -9 8 -25 15 -37 16 -12 0 -31 2 -42 5 -59 11 -69 9 -75
-16 -8 -26 -8 -25 -28 35 -9 24 -11 26 -11 8 -1 -27 -18 -38 -35 -24 -16 14
-26 4 -26 -26 0 -31 -16 -30 -24 2 -7 29 -18 32 -36 10 -7 -8 -21 -15 -31 -15
-11 0 -19 -4 -19 -9 0 -13 -44 0 -53 16 -9 15 -47 18 -47 3 0 -14 -73 -13 -87
1 -9 9 -14 5 -19 -15 -5 -20 -9 -25 -18 -16 -8 8 -11 195 -11 665 l0 655 120
120 c102 102 124 120 150 119 l30 -1 -38 -17z m213 4 c0 -8 -4 -15 -8 -15 -5
0 -9 7 -9 15 0 8 4 15 9 15 4 0 8 -7 8 -15z m-5680 1 c0 -2 -11 -6 -25 -8 -14
-3 -25 -1 -25 3 0 5 11 9 25 9 14 0 25 -2 25 -4z m2837 -28 c-3 -7 -5 -2 -5
12 0 14 2 19 5 13 2 -7 2 -19 0 -25z m1051 25 c-10 -2 -28 -2 -40 0 -13 2 -5
4 17 4 22 1 32 -1 23 -4z m85 0 c-13 -2 -33 -2 -45 0 -13 2 -3 4 22 4 25 0 35
-2 23 -4z m190 0 c-7 -2 -19 -2 -25 0 -7 3 -2 5 12 5 14 0 19 -2 13 -5z m172
-2 c3 -5 8 -148 11 -318 l6 -309 -26 -31 c-15 -18 -50 -49 -79 -70 l-51 -38
29 -6 c17 -4 56 -7 88 -8 50 -1 59 -4 66 -23 4 -13 6 -147 3 -298 l-5 -275
-66 -64 c-36 -34 -79 -74 -95 -87 l-28 -24 -34 21 c-19 12 -42 18 -51 15 -9
-4 -20 -1 -25 6 -6 10 -10 10 -17 -1 -5 -7 -13 -11 -19 -7 -6 3 -67 6 -137 7
-118 0 -128 2 -132 20 -5 19 -6 19 -17 -3 -10 -19 -18 -22 -66 -20 -84 4 -107
11 -115 35 l-8 22 -4 -23 c-3 -14 -11 -22 -21 -21 -52 5 -62 0 -62 -33 -1 -26
-3 -29 -10 -17 -10 18 -15 453 -5 469 7 12 284 14 302 2 8 -5 13 -43 15 -107
l3 -100 135 0 135 0 3 164 c2 109 -1 168 -9 177 -6 8 -36 14 -72 16 l-62 3 -3
144 c-1 80 2 149 7 154 5 5 36 11 69 14 l61 6 3 136 c4 202 16 185 -138 189
-157 3 -154 5 -154 -120 0 -76 -2 -89 -19 -98 -29 -15 -288 -13 -294 3 -2 6
-2 68 1 137 l5 124 50 53 c27 29 54 50 59 47 4 -3 8 -2 7 3 -3 19 2 34 10 29
5 -3 15 1 22 10 12 14 14 14 21 -5 5 -14 16 -21 33 -21 14 0 25 -5 25 -11 0
-8 16 -10 53 -4 68 9 79 9 100 0 14 -6 18 -1 23 24 6 28 10 31 41 31 26 0 36
-5 40 -20 5 -17 14 -20 64 -20 48 0 59 -3 59 -17 0 -14 2 -14 20 2 13 11 18
25 14 37 -4 13 -1 16 10 12 9 -3 16 -14 16 -23 0 -10 11 -23 25 -29 20 -9 26
-8 34 5 8 15 10 15 25 1 9 -9 16 -21 16 -27 0 -16 8 -14 32 9 12 10 24 17 29
15 4 -3 5 3 3 12 -2 10 0 25 6 33 8 12 12 13 19 2 14 -22 23 15 10 40 -8 16
-8 23 2 29 10 6 7 9 -11 9 -14 0 -32 5 -40 10 -11 7 -6 10 22 10 20 0 39 -4
43 -9z m445 -1 c0 -5 -4 -10 -9 -10 -6 0 -13 5 -16 10 -3 6 1 10 9 10 9 0 16
-4 16 -10z m806 -30 c8 0 14 -4 14 -10 0 -5 -4 -10 -8 -10 -12 0 -32 22 -31
35 0 5 3 4 6 -2 2 -7 11 -13 19 -13z m-703 -10 c3 -11 1 -23 -4 -26 -5 -3 -9
6 -9 20 0 31 6 34 13 6z m-202 -42 c-17 -16 -31 -34 -30 -41 0 -9 2 -9 6 0 3
9 10 10 21 4 20 -11 72 -3 72 11 0 5 7 8 17 6 11 -2 19 8 26 32 9 32 11 33 16
12 3 -13 9 -23 14 -23 4 1 12 1 18 1 5 0 7 5 4 10 -3 6 -1 10 4 10 6 0 11 -4
11 -10 0 -5 7 -10 16 -10 14 0 14 -3 4 -15 -21 -26 7 -17 34 10 21 21 29 24
46 15 11 -6 20 -15 20 -19 0 -5 16 -9 35 -8 28 1 35 5 36 21 1 18 2 17 8 -4
14 -44 23 -825 15 -1178 -5 -185 -11 -319 -14 -297 l-5 40 -78 2 c-43 2 -87 8
-98 13 -15 9 -19 7 -19 -5 0 -8 -4 -15 -10 -15 -5 0 -9 5 -7 11 1 6 -4 14 -10
16 -7 3 -13 -2 -13 -11 0 -9 -4 -16 -10 -16 -5 0 -10 5 -10 10 0 15 -30 12
-31 -2 0 -7 -4 -4 -9 7 -5 11 -9 264 -9 563 l-1 542 -103 0 c-67 0 -107 4
-115 12 -7 7 -12 45 -12 99 0 87 0 87 36 121 19 18 40 32 45 31 5 -2 8 1 7 5
-4 13 96 102 101 90 2 -6 -11 -24 -28 -40z m-694 -15 c-3 -10 -5 -4 -5 12 0
17 2 24 5 18 2 -7 2 -21 0 -30z m-3102 -1141 c-4 -189 -9 -342 -11 -340 -1 2
-6 30 -9 63 -6 57 -15 87 -15 52 0 -23 -30 -22 -30 1 -1 15 -2 15 -16 -3 -14
-19 -16 -19 -25 -2 -10 17 -13 17 -34 3 -31 -20 -71 -21 -79 -1 -10 26 -26 16
-26 -15 0 -16 -4 -30 -10 -30 -5 0 -10 13 -10 28 0 26 -2 28 -34 24 -26 -3
-33 -8 -29 -19 5 -13 1 -15 -23 -8 -16 4 -41 7 -56 7 -16 1 -28 5 -28 9 0 5
-7 9 -16 9 -8 0 -12 -4 -9 -10 3 -5 -3 -10 -14 -10 -12 0 -21 8 -24 23 l-4 22
-8 -23 c-6 -18 -10 -20 -16 -10 -7 11 -11 10 -19 -2 -5 -8 -10 -10 -10 -5 0 6
-5 3 -10 -5 -8 -13 -11 -12 -24 5 -12 16 -15 17 -16 4 0 -9 -7 -16 -15 -16 -8
0 -12 4 -9 9 3 4 0 8 -5 8 -6 0 -11 -5 -11 -12 0 -6 -7 -4 -18 5 -10 10 -21
14 -25 11 -3 -3 -48 -8 -101 -10 -91 -4 -95 -4 -98 17 -2 18 -8 12 -29 -29
l-26 -50 -6 96 c-9 123 -7 1187 2 1226 3 17 9 29 14 28 19 -5 27 -1 28 16 1
11 4 9 9 -8 l8 -25 1 25 2 25 13 -24 c9 -17 15 -20 21 -11 5 8 19 10 41 5 31
-5 34 -4 35 17 0 23 0 23 11 -2 l11 -25 7 35 7 35 2 -33 c1 -30 3 -33 24 -26
12 4 25 12 30 18 5 8 10 7 16 -3 6 -9 11 -10 15 -2 10 16 47 13 60 -4 6 -9 27
-18 47 -21 34 -6 37 -4 43 22 7 28 8 28 22 9 12 -16 17 -17 23 -7 6 10 10 7
15 -12 9 -36 24 -33 29 7 3 26 4 24 6 -13 1 -39 3 -43 14 -28 17 22 156 31
164 11 8 -20 22 -15 35 12 13 29 28 33 28 8 1 -16 2 -16 12 2 12 19 13 18 19
-10 l7 -30 1 35 c1 29 3 32 12 17 9 -15 12 -16 25 -2 9 8 23 15 33 15 19 0 40
36 43 73 7 101 18 -884 13 -1151z m1213 1058 c4 0 14 8 21 19 11 15 22 17 60
13 25 -2 51 -9 58 -14 7 -5 14 -5 18 2 3 5 -1 10 -9 10 -9 0 -16 5 -16 10 0 6
-8 10 -17 10 -14 0 -14 3 -5 12 10 10 15 10 20 1 4 -6 20 -15 36 -19 21 -5 27
-4 22 5 -4 6 -2 11 3 11 6 0 11 -7 11 -15 0 -8 4 -15 9 -15 5 0 11 7 15 15 8
23 45 19 39 -4 -4 -14 0 -18 19 -16 37 4 38 4 38 20 0 20 16 19 32 -3 7 -10
27 -19 43 -20 44 -4 59 -7 73 -15 7 -5 12 -3 12 7 0 9 5 16 11 16 6 0 9 10 7
23 -4 22 -3 23 34 13 38 -10 52 -26 23 -26 -8 0 -15 -4 -15 -10 0 -15 47 -12
64 5 19 19 36 19 36 0 0 -9 6 -12 15 -9 9 4 14 12 13 19 -5 22 16 19 27 -4 12
-25 29 -28 23 -3 -3 10 1 23 8 29 10 10 14 0 19 -50 4 -35 5 -74 3 -88 l-3
-24 -220 -5 -220 -5 0 -155 0 -155 196 -3 c148 -2 200 -6 208 -16 15 -18 25
-231 11 -256 -10 -18 -23 -20 -213 -22 l-202 -3 0 -200 0 -200 220 -5 220 -5
3 -104 c2 -63 -1 -108 -8 -115 -7 -7 -10 -7 -10 0 0 21 -76 47 -119 40 -23 -3
-59 -9 -81 -12 -33 -5 -40 -3 -40 10 0 29 -18 17 -26 -16 -6 -29 -8 -30 -15
-13 -4 11 -8 14 -8 8 -1 -18 -21 -16 -21 2 0 18 -12 19 -27 4 -8 -8 -13 -6
-17 9 -6 18 -11 19 -49 10 -23 -5 -54 -7 -69 -4 -17 3 -28 0 -32 -9 -7 -19
-25 -19 -47 1 -11 10 -23 13 -31 8 -23 -15 -37 -12 -43 7 -5 14 -12 18 -26 14
-15 -5 -19 -2 -19 14 0 28 -18 27 -22 -1 -2 -17 -9 -22 -25 -20 -16 2 -23 -2
-24 -15 -1 -10 -5 5 -9 32 -11 65 -12 1115 -2 1265 5 78 8 98 10 63 2 -29 6
-53 10 -53z m-918 83 c0 -5 -14 -22 -30 -40 -32 -34 -39 -63 -15 -63 8 0 24 9
35 20 25 25 110 27 110 2 0 -13 3 -12 20 3 11 10 20 14 20 9 0 -5 4 -16 9 -23
8 -12 13 -11 29 9 15 19 29 24 61 23 38 -1 41 1 43 26 0 16 4 9 8 -19 4 -25 8
-35 8 -22 1 12 6 22 11 22 5 0 12 -10 14 -22 4 -20 4 -20 6 4 1 25 2 26 34 15
17 -7 38 -18 45 -24 20 -19 42 -15 42 7 0 17 5 19 35 15 32 -4 35 -2 36 23 1
21 4 17 9 -13 4 -22 8 -32 9 -22 2 24 16 21 29 -5 l11 -23 0 23 c1 18 7 22 31
22 20 0 30 5 30 15 0 8 4 15 9 15 5 0 9 -6 8 -12 -1 -33 5 -44 23 -45 22 -2
28 13 8 20 -7 2 1 4 18 4 l31 0 7 -405 c5 -289 4 -408 -4 -416 -6 -6 -44 -12
-85 -14 -64 -4 -75 -7 -75 -22 0 -10 30 -102 66 -206 84 -238 90 -273 44 -244
-8 5 -19 5 -25 0 -5 -4 -21 -8 -35 -7 -14 0 -37 -3 -52 -7 -24 -7 -28 -5 -28
13 0 12 -4 21 -10 21 -5 0 -10 -11 -10 -25 0 -14 -4 -25 -10 -25 -5 0 -10 12
-10 26 0 14 -4 23 -10 19 -5 -3 -10 -15 -10 -26 0 -12 -7 -19 -19 -19 -11 0
-21 -6 -24 -12 -5 -13 -25 29 -33 66 -2 10 -7 23 -12 30 -9 11 -26 55 -106
271 -48 130 -48 130 -82 130 -28 0 -29 -2 -35 -55 -3 -30 -7 -124 -8 -208 -2
-168 -8 -192 -53 -192 -16 0 -28 -5 -28 -11 0 -5 -4 -8 -10 -4 -5 3 -7 12 -4
19 3 8 1 17 -5 21 -7 4 -11 -4 -11 -19 0 -14 -4 -26 -10 -26 -5 0 -10 11 -10
24 0 29 -16 42 -33 28 -7 -5 -40 -13 -74 -17 l-63 -7 -7 -51 -8 -52 -6 85 c-4
47 -7 341 -8 653 -1 491 1 572 14 597 9 17 19 30 24 30 4 0 30 23 58 50 49 49
63 58 63 43z m1090 -3 c0 -5 -7 -10 -15 -10 -8 0 -15 5 -15 10 0 6 7 10 15 10
8 0 15 -4 15 -10z m1945 0 c-3 -5 -10 -10 -16 -10 -5 0 -9 5 -9 10 0 6 7 10
16 10 8 0 12 -4 9 -10z m-1698 -32 c-3 -8 -6 -5 -6 6 -1 11 2 17 5 13 3 -3 4
-12 1 -19z m-920 -25 c-3 -10 -5 -4 -5 12 0 17 2 24 5 18 2 -7 2 -21 0 -30z
m-2112 -3 c-27 -12 -43 -12 -25 0 8 5 22 9 30 9 10 0 8 -3 -5 -9z m-589 -15
c9 -8 25 -15 37 -15 12 0 35 -7 51 -15 37 -19 36 -20 37 13 l0 27 12 -25 c16
-35 17 -36 27 -20 7 11 32 15 102 16 106 2 178 12 178 25 0 5 5 9 10 9 6 0 10
-13 10 -29 0 -39 13 -45 50 -26 17 9 53 16 81 17 43 0 49 3 50 21 1 20 2 19 8
-3 6 -21 8 -22 14 -7 9 24 32 21 60 -7 l25 -24 12 26 13 27 9 -27 c11 -32 33
-39 25 -8 -4 17 -1 18 27 14 79 -13 76 -11 76 -59 l0 -45 -139 0 c-77 0 -146
-3 -155 -6 -14 -5 -16 -58 -16 -489 0 -265 -3 -523 -6 -573 -7 -90 -7 -92 -30
-86 -15 4 -24 2 -24 -5 0 -6 -4 -11 -10 -11 -5 0 -10 7 -10 15 0 8 -7 15 -15
15 -8 0 -15 -4 -15 -9 0 -14 -74 0 -83 16 -4 7 -13 13 -18 13 -6 0 -7 -5 -4
-11 4 -5 4 -21 1 -35 l-6 -24 -25 24 c-14 14 -32 23 -39 20 -8 -3 -16 2 -19
13 -3 11 -5 7 -6 -11 0 -16 -4 -26 -8 -22 -5 4 -10 267 -13 584 l-5 577 -140
0 c-77 1 -146 2 -152 3 -9 1 -13 21 -13 60 0 73 8 85 36 57z m-1005 -25 c8 1
27 2 43 1 24 -1 27 -3 16 -16 -7 -9 -8 -15 -2 -15 5 0 13 8 17 18 6 15 8 15
26 -7 15 -18 26 -22 52 -18 21 3 38 -1 50 -11 10 -9 17 -11 17 -4 0 7 15 12
35 12 22 0 37 6 44 17 8 15 29 19 121 23 68 3 115 1 122 -5 7 -7 12 -6 15 2 4
10 10 10 26 1 24 -12 134 -14 184 -3 28 6 33 5 38 -16 3 -13 5 -73 3 -134 l-3
-110 -115 -3 c-167 -4 -160 -8 -160 88 0 97 -4 100 -127 100 -121 -1 -123 -3
-123 -123 0 -116 -26 -87 292 -326 l233 -176 2 -290 c2 -187 -1 -285 -7 -275
-7 11 -37 16 -120 20 -61 3 -115 1 -119 -3 -4 -4 -14 -1 -21 8 -17 21 -30 19
-30 -5 0 -25 -20 -27 -20 -2 -1 13 -4 11 -15 -8 l-14 -25 -2 25 -1 25 -7 -25
c-7 -25 -7 -25 -13 -2 -8 29 -48 31 -48 2 0 -11 -2 -20 -5 -20 -12 0 -55 24
-55 32 0 4 -4 8 -10 8 -5 0 -10 -9 -10 -20 0 -11 -4 -20 -10 -20 -5 0 -10 11
-10 25 0 14 -4 25 -10 25 -5 0 -10 -9 -10 -21 0 -11 -4 -18 -8 -15 -4 2 -14 1
-21 -4 -8 -4 -27 -4 -42 0 -20 6 -29 5 -29 -3 0 -7 -4 -6 -10 3 -7 11 -24 14
-70 12 -33 -2 -66 1 -73 6 -16 14 -33 3 -39 -23 -6 -28 -20 257 -16 330 l3 60
149 3 c108 2 152 -1 163 -10 13 -10 14 -28 10 -89 -8 -106 -4 -111 103 -107
l85 3 3 126 c2 102 0 130 -12 142 -9 8 -116 84 -238 168 -123 83 -233 161
-245 172 -22 20 -23 27 -23 197 0 188 8 309 20 290 4 -6 13 -11 21 -10z m8189
-1656 c0 -33 -112 -280 -194 -429 -170 -308 -396 -600 -707 -916 -188 -190
-308 -296 -318 -280 -6 8 -11 9 -15 3 -3 -6 0 -12 6 -15 10 -4 10 -7 0 -18
-10 -10 -15 -11 -20 -2 -5 8 -12 9 -22 2 -13 -8 -13 -10 0 -18 13 -9 13 -10 0
-15 -33 -10 -47 -3 -42 22 5 23 3 24 -46 18 -38 -4 -52 -2 -56 9 -3 8 0 14 6
12 7 -1 12 3 13 8 0 13 42 55 55 55 5 0 15 10 21 23 7 12 33 45 59 72 26 28
63 68 81 90 19 22 36 42 39 45 32 32 106 133 182 251 143 219 147 227 286 489
45 85 179 380 228 502 21 52 24 53 126 64 l68 7 -41 -104 c-78 -202 -225 -512
-330 -699 -23 -41 -35 -69 -26 -61 22 17 160 222 224 332 58 98 198 384 233
474 13 33 27 65 32 72 6 7 40 14 76 16 37 2 70 4 75 5 4 1 7 -5 7 -14z m-845
-16 c0 -11 -609 -13 -3167 -16 -3210 -2 -3195 -2 -3164 29 2 2 1428 3 3168 2
2555 -2 3163 -5 3163 -15z m-6930 -113 c111 -280 364 -682 621 -986 66 -78
261 -268 374 -366 102 -88 148 -132 143 -136 -8 -9 -33 4 -27 14 3 5 2 9 -3 9
-4 0 -26 16 -48 35 -21 19 -41 33 -43 30 -6 -5 -42 33 -42 45 0 14 -22 12 -42
-4 -24 -18 -23 -38 2 -34 10 2 19 -1 20 -7 0 -5 -11 -11 -26 -13 -16 -2 -28
-11 -31 -23 -6 -21 -23 -26 -23 -6 0 9 -12 11 -40 9 -27 -3 -40 -9 -40 -19 0
-10 -7 -14 -20 -10 -11 3 -20 1 -20 -4 0 -5 -4 -9 -10 -9 -5 0 -7 7 -4 15 5
11 2 13 -10 9 -21 -8 -20 -22 1 -48 9 -12 -28 25 -83 80 -54 56 -112 118 -129
139 -16 20 -39 46 -51 58 -11 12 -48 58 -82 102 -35 44 -68 87 -75 95 -6 8
-21 28 -33 45 -11 16 -36 53 -55 80 -180 257 -345 607 -424 898 l-24 88 96 -3
97 -3 31 -80z m510 -31 c196 -416 427 -744 753 -1069 45 -46 82 -88 82 -94 0
-6 4 -10 9 -9 5 2 24 -13 43 -32 28 -29 128 -120 209 -191 22 -19 26 -38 5
-20 -12 10 -17 8 -25 -7 -7 -14 -18 -18 -36 -15 -14 3 -25 9 -25 13 0 17 -42
22 -58 6 -12 -10 -22 -12 -32 -6 -10 7 -11 10 -2 10 6 0 12 5 12 11 0 5 -4 8
-9 4 -6 -3 -14 3 -20 12 -5 10 -12 15 -16 11 -9 -9 -36 15 -189 167 -169 169
-227 235 -361 414 -142 189 -245 345 -335 501 -74 130 -200 382 -200 400 0 6
28 10 70 10 l70 0 55 -116z m6755 88 c0 -9 -58 -134 -129 -277 -217 -434 -439
-751 -743 -1060 -113 -115 -140 -137 -149 -125 -8 12 -9 11 -5 -5 4 -15 -5
-27 -37 -50 -23 -16 -48 -28 -56 -26 -7 1 -10 -2 -6 -8 3 -6 -6 -22 -22 -36
-32 -28 -45 -32 -37 -10 4 8 10 13 14 10 4 -3 11 2 14 11 4 11 2 15 -8 11 -9
-4 -17 1 -19 11 -3 12 -5 11 -6 -5 -1 -20 -7 -23 -38 -23 -48 0 -111 -22 -137
-47 -28 -26 -57 -37 -49 -17 3 7 9 14 13 14 4 0 18 11 31 25 13 13 32 25 41
25 9 0 20 5 24 12 5 8 2 9 -10 5 -9 -4 10 18 41 47 38 36 61 50 65 42 5 -7 8
-5 8 6 0 10 39 57 86 105 84 86 178 190 261 288 160 192 456 651 613 950 35
66 65 122 67 125 3 3 32 7 66 10 34 3 72 6 84 7 16 2 23 -2 23 -15z m-3705
-52 c-3 -5 -20 -10 -37 -10 l-31 0 44 -34 c116 -88 141 -258 52 -350 -35 -35
-73 -63 -73 -52 0 3 19 25 43 48 110 111 82 263 -70 366 -30 21 -40 22 -325
21 -172 0 -284 -4 -272 -9 28 -11 64 -58 64 -82 0 -18 2 -18 22 -4 33 23 109
21 141 -5 60 -46 58 -146 -3 -204 -28 -26 -38 -30 -103 -31 l-72 -2 60 6 c62
7 116 36 135 72 15 28 12 93 -6 118 -8 12 -12 22 -7 23 4 0 -9 7 -30 14 -48
18 -92 9 -117 -23 -24 -30 -25 -50 -4 -80 20 -28 58 -28 79 1 l16 22 -3 -25
c-7 -59 -103 -47 -120 16 -7 27 -11 30 -40 27 -31 -3 -32 -3 -8 7 49 21 56 76
14 109 -31 25 -46 26 -83 7 -35 -19 -51 -55 -51 -116 0 -60 11 -91 51 -141 17
-22 25 -39 19 -39 -22 0 -66 39 -126 111 -104 127 -165 169 -245 169 -112 0
-187 -126 -122 -204 10 -12 6 -9 -9 6 -16 16 -28 38 -28 50 0 20 -2 20 -33
-10 -18 -18 -37 -32 -42 -32 -5 0 1 7 14 16 58 41 62 132 7 165 -40 24 -57 24
-90 -2 -27 -21 -31 -35 -17 -58 7 -11 13 -10 33 3 22 14 27 15 37 2 7 -9 10
-24 6 -36 -5 -17 -13 -21 -43 -18 -33 3 -37 6 -45 41 -14 56 14 91 74 95 53 4
76 -11 93 -61 12 -36 13 -37 25 -15 6 13 28 34 48 48 29 20 49 25 97 25 92 0
150 -39 240 -160 71 -95 94 -113 61 -48 -46 93 -27 196 44 233 36 19 26 19
-1006 20 -683 0 -1044 3 -1048 10 -4 7 463 10 1395 10 932 0 1399 -3 1395 -10z
m3190 0 c-4 -7 -228 -10 -658 -10 -359 0 -872 0 -1142 0 l-490 0 37 -22 c21
-12 44 -36 53 -54 26 -56 15 -153 -23 -196 -8 -10 -11 -18 -6 -18 5 0 27 23
49 52 68 88 128 149 166 169 86 43 176 33 228 -26 17 -19 32 -35 35 -35 2 0 7
13 11 30 9 39 40 60 89 60 54 0 86 -30 86 -81 0 -38 -11 -53 -47 -61 -26 -7
-58 24 -50 47 8 18 38 20 55 3 17 -17 36 4 27 31 -20 64 -114 60 -142 -6 -16
-39 -8 -79 24 -117 10 -12 4 -9 -11 6 l-29 26 -21 -41 c-30 -58 -62 -78 -106
-68 l-35 9 43 1 c59 1 92 34 92 93 0 132 -157 183 -275 90 -14 -11 -58 -60
-98 -109 -72 -86 -113 -123 -138 -123 -7 0 -4 10 8 23 42 45 63 99 63 160 0
54 -3 62 -34 93 -36 36 -54 41 -89 23 -47 -25 -51 -76 -9 -109 l27 -21 -32 5
c-30 5 -33 3 -33 -19 0 -28 -35 -65 -63 -65 -31 0 -57 19 -57 43 l0 21 16 -22
c21 -30 59 -29 80 4 16 23 16 28 1 60 -21 44 -59 60 -107 45 -19 -6 -43 -22
-53 -36 -24 -34 -26 -103 -3 -137 31 -48 111 -72 177 -54 21 6 22 5 6 -4 -29
-18 -99 -16 -141 5 -56 27 -78 67 -73 134 3 46 9 59 36 83 36 32 103 39 137
13 27 -20 34 -19 34 9 0 15 13 36 35 55 l36 31 -285 0 -285 0 -45 -30 c-84
-57 -126 -125 -126 -205 0 -78 30 -132 104 -186 46 -34 41 -37 -15 -9 -143 74
-143 294 1 398 l39 27 -32 12 c-25 9 307 12 1466 12 1010 1 1496 -2 1492 -9z
m-1392 -51 c-28 -47 -39 -53 -76 -41 l-32 10 35 1 c28 1 38 7 52 31 9 17 22
30 28 30 7 0 4 -13 -7 -31z m-3383 10 c0 -19 28 -39 57 -40 27 0 27 -1 6 -11
-12 -6 -28 -8 -35 -5 -17 6 -52 67 -39 67 6 0 11 -5 11 -11z m-122 -10 c-19
-10 -24 -45 -10 -66 4 -6 21 -19 37 -27 21 -11 24 -16 12 -16 -26 0 -67 45
-67 73 0 24 17 47 35 47 5 0 2 -5 -7 -11z m3642 -14 c20 -52 -19 -96 -82 -94
l-33 1 37 7 c20 4 44 13 52 21 20 16 21 54 1 70 -17 14 -39 4 -31 -16 6 -16
-20 -19 -29 -4 -11 18 15 40 46 40 22 0 32 -6 39 -25z m140 4 c0 -10 -32 -24
-78 -35 l-27 -7 20 23 c31 35 85 47 85 19z m-3870 -14 c19 -20 20 -25 7 -25
-29 0 -88 33 -75 42 23 14 44 9 68 -17z m150 -1 c0 -8 -7 -14 -15 -14 -15 0
-21 21 -9 33 10 9 24 -2 24 -19z m184 -19 c-4 -9 -16 -21 -28 -27 -19 -10 -19
-9 3 16 28 30 33 32 25 11z m3142 -12 c-7 -7 -26 7 -26 19 0 6 6 6 15 -2 9 -7
13 -15 11 -17z m-1793 -9 c100 -52 84 -234 -21 -234 -38 0 -72 23 -72 48 0 12
5 10 23 -6 29 -27 61 -28 87 -2 41 41 38 99 -9 152 -23 26 -37 32 -82 35 -45
4 -60 1 -89 -19 -98 -66 -92 -213 12 -288 44 -32 44 -39 -1 -16 -37 19 -89 80
-97 112 l-7 25 -29 -35 c-26 -32 -72 -64 -95 -67 -5 -1 -18 -5 -31 -10 -39
-15 -109 -10 -170 11 -61 22 -159 83 -141 89 6 1 17 -5 24 -15 8 -11 15 -16
15 -12 0 4 25 -8 55 -26 48 -29 65 -33 131 -35 60 -2 83 2 120 21 61 30 99 75
118 140 37 128 152 187 259 132z m572 7 c47 -21 92 -71 101 -109 28 -133 98
-192 227 -192 74 0 116 12 172 50 68 46 125 80 125 76 0 -10 -148 -112 -185
-128 -89 -38 -227 -14 -296 51 l-40 39 -10 -26 c-11 -30 -57 -82 -73 -82 -5 0
0 10 12 23 75 79 66 209 -18 265 -29 19 -45 23 -87 20 -79 -7 -127 -63 -116
-135 10 -66 66 -92 110 -51 19 18 23 19 23 5 0 -46 -92 -63 -129 -23 -63 67
-19 197 75 226 44 13 65 11 109 -9z m1317 -39 c9 -9 6 -10 -12 -7 -31 6 -47
22 -20 20 11 -1 26 -7 32 -13z m-506 -1 c-3 -5 -18 -12 -32 -15 -27 -7 -102
-54 -164 -103 -33 -26 -34 -26 -15 -3 44 54 123 107 178 120 18 5 33 8 35 9 2
1 1 -3 -2 -8z m-2257 -23 c50 -30 83 -58 122 -104 l34 -39 -53 45 c-70 59
-130 99 -167 109 l-30 9 29 1 c16 1 45 -9 65 -21z m2731 -38 c-11 -21 -66 -60
-85 -60 -5 0 9 11 32 25 23 14 45 35 48 46 4 11 9 18 12 16 2 -3 -1 -15 -7
-27z m-445 -10 c-3 -5 -12 -10 -18 -10 -7 0 -6 4 3 10 19 12 23 12 15 0z
m-2814 -17 c13 -16 12 -17 -3 -4 -10 7 -18 15 -18 17 0 8 8 3 21 -13z m819
-28 c0 -5 -5 -3 -10 5 -5 8 -10 20 -10 25 0 6 5 3 10 -5 5 -8 10 -19 10 -25z
m1603 20 c-3 -9 -8 -14 -10 -11 -3 3 -2 9 2 15 9 16 15 13 8 -4z m-1980 -26
c-9 -32 -49 -54 -76 -41 -21 10 -20 11 9 11 34 1 54 17 54 44 0 10 4 16 9 13
5 -3 7 -15 4 -27z m2354 9 c-3 -8 -6 -5 -6 6 -1 11 2 17 5 13 3 -3 4 -12 1
-19z m-2630 -10 c-16 -10 -115 -10 -120 0 -3 4 26 7 63 7 38 0 63 -3 57 -7z
m403 5 c-14 -3 -32 -10 -40 -16 -13 -11 -13 -10 -1 6 7 9 25 16 40 16 l26 -2
-25 -4z m2140 -14 c13 -23 7 -49 -11 -49 -8 0 -8 4 1 15 17 21 -2 43 -43 48
-31 4 -31 4 5 5 29 2 40 -3 48 -19z m433 4 c-13 -2 -33 -2 -45 0 -13 2 -3 4
22 4 25 0 35 -2 23 -4z m-2298 -13 c3 -6 -1 -7 -9 -4 -18 7 -21 14 -7 14 6 0
13 -4 16 -10z m815 -187 c-1 -25 -28 -121 -30 -103 0 11 -5 9 -19 -7 l-18 -22
-7 42 c-3 23 -9 56 -12 74 -5 24 0 42 16 68 l22 36 24 -35 c13 -19 24 -43 24
-53z m-513 37 c17 -10 37 -29 44 -42 9 -18 4 -16 -21 10 -25 24 -41 32 -69 32
-20 0 -41 -3 -47 -7 -5 -5 -1 0 9 10 25 22 44 22 84 -3z m993 10 c-8 -5 -25
-10 -37 -10 -12 0 -32 -14 -47 -32 -14 -18 -26 -28 -26 -21 0 25 61 73 93 73
24 0 28 -3 17 -10z m-684 -27 c-4 -4 -42 -8 -84 -9 l-77 -2 72 7 c40 4 76 10
79 14 4 4 10 5 12 2 3 -3 2 -8 -2 -12z m494 -3 c-8 -5 -24 -9 -35 -9 -16 1
-16 2 5 9 35 11 48 11 30 0z m-90 -8 c0 -5 -13 -7 -30 -4 -16 2 -30 6 -30 8 0
2 14 4 30 4 17 0 30 -4 30 -8z m337 -39 c-3 -10 -5 -4 -5 12 0 17 2 24 5 18 2
-7 2 -21 0 -30z m-176 -26 c-10 -9 -11 -8 -5 6 3 10 9 15 12 12 3 -3 0 -11 -7
-18z m-543 -23 c17 -12 22 -24 20 -47 -2 -17 -8 -32 -14 -34 -7 -2 -10 6 -7
22 7 32 -12 55 -46 55 -31 0 -44 -8 -59 -35 -11 -19 -12 -18 -8 5 5 44 72 64
114 34z m359 4 c25 -9 33 -18 33 -36 l0 -25 -20 26 c-28 35 -56 42 -86 22 -21
-14 -24 -21 -19 -47 5 -21 4 -28 -4 -24 -20 13 -13 62 12 79 27 20 41 20 84 5z
m-550 -34 c-3 -3 -12 -4 -19 -1 -8 3 -5 6 6 6 11 1 17 -2 13 -5z m121 -121 c9
-7 11 -13 5 -13 -13 0 -53 48 -53 64 0 6 7 -1 16 -14 10 -14 24 -31 32 -37z
m132 -63 c0 -15 -48 -43 -60 -35 -7 4 2 14 22 25 40 23 38 22 38 10z m182 -5
c3 3 11 -1 18 -10 7 -9 10 -18 6 -22 -10 -10 -56 19 -56 35 0 11 3 12 13 3 8
-6 16 -9 19 -6z m-142 -40 c0 -8 -4 -15 -10 -15 -5 0 -7 7 -4 15 4 8 8 15 10
15 2 0 4 -7 4 -15z m6 -115 c4 -21 2 -20 -14 9 -11 20 -17 44 -14 60 6 25 6
25 14 -9 5 -19 11 -46 14 -60z m-2638 -501 c-2 -6 -8 -10 -13 -10 -5 0 -11 4
-13 10 -2 6 4 11 13 11 9 0 15 -5 13 -11z m42 -10 c0 -6 -4 -7 -10 -4 -5 3
-10 11 -10 16 0 6 5 7 10 4 6 -3 10 -11 10 -16z m-165 -29 c3 -5 1 -10 -4 -10
-6 0 -11 5 -11 10 0 6 2 10 4 10 3 0 8 -4 11 -10z m621 -16 c-5 -14 -9 -15
-19 -5 -9 9 -9 14 3 21 18 11 24 6 16 -16z m174 10 c0 -2 -7 -4 -15 -4 -8 0
-15 4 -15 10 0 5 7 7 15 4 8 -4 15 -8 15 -10z m25 -24 c3 -5 1 -10 -4 -10 -6
0 -11 5 -11 10 0 6 2 10 4 10 3 0 8 -4 11 -10z m-520 -10 c3 -5 1 -10 -4 -10
-6 0 -11 5 -11 10 0 6 2 10 4 10 3 0 8 -4 11 -10z m555 -25 c0 -8 -2 -15 -4
-15 -2 0 -6 7 -10 15 -3 8 -1 15 4 15 6 0 10 -7 10 -15z m4630 5 c0 -5 -4 -10
-10 -10 -5 0 -10 5 -10 10 0 6 5 10 10 10 6 0 10 -4 10 -10z m-5155 -10 c3 -5
1 -10 -4 -10 -6 0 -11 5 -11 10 0 6 2 10 4 10 3 0 8 -4 11 -10z m45 -40 c0 -5
-2 -10 -4 -10 -3 0 -8 5 -11 10 -3 6 -1 10 4 10 6 0 11 -4 11 -10z m5220 -24
c0 -2 -7 -7 -16 -10 -8 -3 -12 -2 -9 4 6 10 25 14 25 6z"/>
<path d="M5063 9642 c-16 -10 -5 -52 14 -52 8 0 11 5 8 10 -3 6 -2 10 4 10 6
0 8 7 5 15 -5 12 4 15 45 15 28 0 51 -4 51 -10 0 -5 -4 -10 -10 -10 -5 0 -10
-16 -10 -35 0 -19 5 -35 10 -35 9 0 14 17 13 48 -1 6 3 12 7 12 5 0 7 8 6 18
-2 14 -15 17 -67 20 -35 1 -69 -1 -76 -6z"/>
<path d="M5230 9625 c0 -19 9 -19 34 0 19 14 19 15 -7 15 -17 0 -27 -5 -27
-15z"/>
<path d="M4951 9588 c0 -27 4 -48 9 -48 11 0 11 21 0 65 -7 27 -8 25 -9 -17z"/>
<path d="M5691 9594 c0 -11 3 -14 6 -6 3 7 2 16 -1 19 -3 4 -6 -2 -5 -13z"/>
<path d="M5572 9575 c0 -16 2 -22 5 -12 2 9 2 23 0 30 -3 6 -5 -1 -5 -18z"/>
<path d="M5750 9582 c0 -12 4 -22 9 -22 10 0 9 26 -2 36 -4 4 -7 -2 -7 -14z"/>
<path d="M5590 9580 c0 -5 5 -10 10 -10 6 0 10 5 10 10 0 6 -4 10 -10 10 -5 0
-10 -4 -10 -10z"/>
<path d="M6205 9570 c3 -5 11 -10 16 -10 6 0 7 5 4 10 -3 6 -11 10 -16 10 -6
0 -7 -4 -4 -10z"/>
<path d="M5430 9560 c0 -5 5 -10 10 -10 6 0 10 5 10 10 0 6 -4 10 -10 10 -5 0
-10 -4 -10 -10z"/>
<path d="M5230 9553 c0 -4 5 -15 10 -23 8 -13 10 -13 10 2 0 9 -4 20 -10 23
-5 3 -10 3 -10 -2z"/>
<path d="M5322 9548 c-14 -14 -15 -47 -2 -68 8 -12 10 -12 11 5 3 58 4 60 23
57 11 -2 15 1 11 7 -8 14 -28 14 -43 -1z"/>
<path d="M5878 9530 c-6 -40 -5 -46 9 -28 5 7 7 24 3 38 -6 23 -7 23 -12 -10z"/>
<path d="M5070 9506 c0 -26 -5 -46 -12 -49 -10 -3 -8 -9 4 -23 16 -17 18 -15
25 27 4 24 6 49 4 54 -2 6 -4 16 -4 23 0 6 -4 12 -9 12 -4 0 -8 -20 -8 -44z"/>
<path d="M5470 9541 c0 -5 5 -13 10 -16 6 -3 10 -2 10 4 0 5 -4 13 -10 16 -5
3 -10 2 -10 -4z"/>
<path d="M5592 9525 c-16 -35 -16 -88 1 -83 10 4 23 108 13 108 -2 0 -8 -11
-14 -25z"/>
<path d="M5100 9525 c0 -8 7 -15 15 -15 9 0 12 6 9 15 -4 8 -10 15 -15 15 -5
0 -9 -7 -9 -15z"/>
<path d="M5291 9514 c0 -11 3 -14 6 -6 3 7 2 16 -1 19 -3 4 -6 -2 -5 -13z"/>
<path d="M5376 9460 c2 -36 7 -99 10 -140 7 -84 12 -95 44 -85 17 5 21 13 17
31 -2 14 0 27 4 30 16 9 10 37 -6 30 -9 -3 -15 0 -15 8 0 7 -7 19 -15 26 -11
9 -13 16 -5 24 12 12 14 39 1 32 -11 -7 -35 20 -28 31 3 5 1 24 -3 43 -7 27
-8 20 -4 -30z m54 -190 c0 -16 -4 -30 -10 -30 -5 0 -10 14 -10 30 0 17 5 30
10 30 6 0 10 -13 10 -30z"/>
<path d="M5530 9500 c0 -11 5 -20 10 -20 6 0 10 9 10 20 0 11 -4 20 -10 20 -5
0 -10 -9 -10 -20z"/>
<path d="M5648 9496 c-3 -14 -2 -26 2 -26 13 0 21 33 12 42 -6 6 -11 -1 -14
-16z"/>
<path d="M5150 9475 c-9 -27 -9 -40 -1 -48 8 -8 11 -7 12 4 0 7 4 4 9 -9 11
-26 2 -112 -11 -112 -5 0 -9 14 -9 30 0 17 -4 30 -10 30 -5 0 -10 -13 -10 -29
0 -30 19 -45 45 -35 12 5 15 -2 15 -30 l0 -36 75 0 c68 0 95 10 63 23 -10 4
-10 6 0 6 8 1 10 9 6 26 -4 15 -2 25 5 25 6 0 11 -4 11 -10 0 -5 5 -10 10 -10
11 0 3 47 -10 65 -4 6 -11 27 -14 49 -6 30 -10 36 -19 26 -9 -10 -9 -14 0 -17
9 -3 10 -9 1 -23 -9 -14 -9 -22 1 -33 8 -10 9 -17 1 -22 -5 -3 -11 -27 -11
-53 l-2 -47 -7 40 c-7 39 -7 39 -9 8 -2 -50 -21 -39 -21 12 0 25 5 45 10 45 6
0 10 16 10 35 0 19 -4 35 -10 35 -5 0 -10 -7 -10 -16 0 -8 -3 -13 -8 -10 -4 2
-7 25 -6 51 2 41 0 45 -13 32 -12 -12 -13 -18 -1 -36 11 -19 11 -23 -4 -32
-22 -12 -23 -38 -3 -45 18 -7 20 -60 3 -67 -10 -4 -10 -6 0 -6 6 -1 12 -9 12
-18 0 -15 -2 -16 -10 -3 -7 11 -10 11 -10 2 0 -7 -4 -10 -10 -7 -5 3 -10 18
-10 32 0 18 4 24 15 19 17 -6 21 9 5 19 -6 4 -18 1 -27 -7 -14 -12 -15 -8 -9
35 5 32 4 47 -4 47 -7 0 -8 6 -1 18 11 21 1 74 -16 79 -6 2 -17 -12 -23 -32z"/>
<path d="M5690 9500 c0 -5 4 -10 9 -10 5 0 7 -10 4 -22 -4 -20 -3 -20 6 -6 6
9 8 23 5 32 -7 18 -24 22 -24 6z"/>
<path d="M5730 9480 c0 -16 5 -30 10 -30 6 0 10 14 10 30 0 17 -4 30 -10 30
-5 0 -10 -13 -10 -30z"/>
<path d="M5213 9455 c0 -22 2 -30 4 -17 2 12 2 30 0 40 -3 9 -5 -1 -4 -23z"/>
<path d="M5525 9446 c-5 -11 -3 -21 4 -25 6 -4 9 -15 5 -24 -3 -9 -2 -17 4
-17 13 0 22 -72 10 -87 -7 -8 -5 -18 5 -28 9 -8 18 -11 22 -6 8 14 -6 121 -16
121 -5 0 -9 5 -9 10 0 6 9 10 20 10 17 0 20 -7 20 -41 0 -24 4 -38 10 -34 6 3
10 26 10 51 0 41 -2 44 -23 40 -29 -5 -43 3 -49 29 -5 19 -5 19 -13 1z"/>
<path d="M5798 9454 c6 -3 12 -19 12 -35 0 -37 16 -38 23 -1 3 15 5 28 4 28
-1 1 -13 4 -27 8 -14 3 -19 3 -12 0z"/>
<path d="M5490 9413 c0 -28 3 -34 10 -23 13 20 13 60 0 60 -5 0 -10 -17 -10
-37z"/>
<path d="M5955 9440 c3 -5 8 -10 11 -10 2 0 4 5 4 10 0 6 -5 10 -11 10 -5 0
-7 -4 -4 -10z"/>
<path d="M5430 9423 c0 -23 15 -39 23 -26 3 5 -1 17 -9 28 -14 18 -14 18 -14
-2z"/>
<path d="M5730 9424 c0 -10 -6 -14 -15 -10 -12 4 -15 -4 -15 -47 1 -50 1 -51
15 -27 14 25 14 25 15 3 0 -13 5 -23 10 -23 6 0 10 11 10 25 0 14 -4 25 -10
25 -5 0 -10 7 -10 15 0 8 5 15 10 15 6 0 10 9 10 20 0 11 -4 20 -10 20 -5 0
-10 -7 -10 -16z"/>
<path d="M5765 9430 c3 -5 10 -10 16 -10 5 0 9 5 9 10 0 6 -7 10 -16 10 -8 0
-12 -4 -9 -10z"/>
<path d="M5930 9421 c0 -6 5 -13 10 -16 6 -3 10 1 10 9 0 9 -4 16 -10 16 -5 0
-10 -4 -10 -9z"/>
<path d="M5888 9413 c7 -3 16 -2 19 1 4 3 -2 6 -13 5 -11 0 -14 -3 -6 -6z"/>
<path d="M5630 9333 c1 -62 3 -74 12 -59 6 10 11 38 12 62 0 23 4 46 8 50 10
10 0 24 -18 24 -11 0 -14 -17 -14 -77z"/>
<path d="M6050 9375 c0 -14 5 -25 10 -25 6 0 10 11 10 25 0 14 -4 25 -10 25
-5 0 -10 -11 -10 -25z"/>
<path d="M5850 9366 c0 -8 -6 -16 -12 -19 -7 -2 -9 -8 -5 -13 5 -5 15 -1 23
10 16 23 18 36 4 36 -5 0 -10 -6 -10 -14z"/>
<path d="M5950 9360 c0 -19 3 -21 12 -12 9 9 9 15 0 24 -9 9 -12 7 -12 -12z"/>
<path d="M5810 9322 c0 -30 4 -52 11 -52 7 0 8 16 3 48 -9 64 -14 66 -14 4z"/>
<path d="M6150 9356 c0 -9 5 -16 10 -16 6 0 10 4 10 9 0 6 -4 13 -10 16 -5 3
-10 -1 -10 -9z"/>
<path d="M5483 9331 c-10 -27 -9 -31 9 -37 11 -3 25 -1 30 4 12 12 1 55 -12
47 -5 -3 -10 0 -12 5 -2 6 -8 -3 -15 -19z"/>
<path d="M6190 9300 c0 -18 4 -29 10 -25 6 3 10 15 10 25 0 10 -4 22 -10 25
-6 4 -10 -7 -10 -25z"/>
<path d="M5890 9265 c0 -25 5 -45 10 -45 6 0 10 20 10 45 0 25 -4 45 -10 45
-5 0 -10 -20 -10 -45z"/>
<path d="M5997 9304 c-4 -4 -4 -17 -1 -29 3 -13 1 -25 -4 -29 -5 -3 -7 -26 -5
-50 5 -38 3 -45 -16 -51 -11 -3 -21 -11 -21 -16 0 -14 13 -10 37 10 16 14 24
34 29 72 6 53 -5 107 -19 93z"/>
<path d="M6039 9236 c-1 -42 -2 -83 -3 -92 -1 -20 29 -42 41 -30 4 4 -1 14
-12 23 -20 15 -20 15 3 8 16 -5 22 -2 22 10 0 8 12 21 26 27 23 11 26 16 21
51 -8 60 -27 71 -27 16 0 -25 -7 -54 -15 -65 -14 -18 -14 -18 -15 8 0 15 -4
30 -10 33 -5 3 -10 21 -10 40 0 19 -4 37 -10 40 -6 4 -10 -22 -11 -69z m31
-56 c0 -11 -4 -20 -10 -20 -5 0 -10 9 -10 20 0 11 5 20 10 20 6 0 10 -9 10
-20z"/>
<path d="M5947 9271 c-21 -37 -21 -40 2 -34 12 3 18 14 19 34 0 16 0 29 -2 29
-1 0 -9 -13 -19 -29z"/>
<path d="M5710 9263 c0 -22 2 -25 10 -13 13 20 13 40 0 40 -5 0 -10 -12 -10
-27z"/>
<path d="M5850 9255 c0 -19 5 -35 10 -35 6 0 10 16 10 35 0 19 -4 35 -10 35
-5 0 -10 -16 -10 -35z"/>
<path d="M6231 9274 c0 -11 3 -14 6 -6 3 7 2 16 -1 19 -3 4 -6 -2 -5 -13z"/>
<path d="M6204 9247 c3 -10 6 -25 6 -33 0 -8 5 -14 10 -14 15 0 12 22 -7 45
-14 18 -15 18 -9 2z"/>
<path d="M6580 9199 c0 -5 5 -7 10 -4 6 3 10 8 10 11 0 2 -4 4 -10 4 -5 0 -10
-5 -10 -11z"/>
<path d="M5906 9173 c-12 -12 -6 -33 9 -33 8 0 15 6 15 14 0 17 -14 28 -24 19z"/>
<path d="M6135 9160 c-3 -5 -1 -10 4 -10 6 0 11 5 11 10 0 6 -2 10 -4 10 -3 0
-8 -4 -11 -10z"/>
<path d="M6350 9151 c0 -25 6 -27 13 -6 4 8 2 17 -3 20 -6 4 -10 -3 -10 -14z"/>
<path d="M6610 9105 c0 -14 5 -25 10 -25 6 0 10 11 10 25 0 14 -4 25 -10 25
-5 0 -10 -11 -10 -25z"/>
<path d="M6161 9104 c0 -11 3 -14 6 -6 3 7 2 16 -1 19 -3 4 -6 -2 -5 -13z"/>
<path d="M6697 9113 c-11 -10 -8 -43 3 -43 6 0 10 11 10 25 0 26 -2 29 -13 18z"/>
<path d="M6505 9081 c-3 -11 -12 -22 -20 -25 -18 -6 -21 -76 -4 -76 7 0 9 9 6
21 -9 35 30 79 46 52 2 -5 2 -2 0 5 -1 8 -3 20 -3 28 0 21 -18 17 -25 -5z"/>
<path d="M6330 9080 c0 -5 5 -10 10 -10 6 0 10 5 10 10 0 6 -4 10 -10 10 -5 0
-10 -4 -10 -10z"/>
<path d="M7470 9050 c0 -5 5 -10 11 -10 5 0 7 5 4 10 -3 6 -8 10 -11 10 -2 0
-4 -4 -4 -10z"/>
<path d="M7310 9030 c0 -5 5 -10 11 -10 5 0 7 5 4 10 -3 6 -8 10 -11 10 -2 0
-4 -4 -4 -10z"/>
<path d="M6420 8995 c0 -8 5 -15 10 -15 6 0 10 7 10 15 0 8 -4 15 -10 15 -5 0
-10 -7 -10 -15z"/>
<path d="M6846 8992 c-2 -4 -1 -14 5 -22 6 -10 9 -11 9 -2 0 6 10 12 23 12 18
0 19 2 7 10 -18 12 -37 13 -44 2z"/>
<path d="M7402 8991 c-11 -7 -10 -10 3 -15 9 -3 24 -1 33 5 16 10 16 10 0 5
-9 -3 -18 -1 -20 4 -2 5 -9 6 -16 1z"/>
<path d="M6398 8963 c7 -3 16 -2 19 1 4 3 -2 6 -13 5 -11 0 -14 -3 -6 -6z"/>
<path d="M7030 8943 c0 -16 -3 -39 -5 -53 -3 -14 -3 -19 1 -12 8 17 24 15 24
-3 0 -21 23 -19 40 5 8 11 22 20 31 20 9 0 19 7 23 15 3 8 1 15 -4 15 -6 0
-10 -4 -10 -10 0 -5 -5 -10 -11 -10 -6 0 -9 6 -6 14 4 9 -6 20 -28 30 -46 22
-55 20 -55 -11z"/>
<path d="M6946 8945 c-9 -25 -7 -63 3 -70 14 -8 26 64 14 76 -7 7 -12 5 -17
-6z"/>
<path d="M7640 8931 c0 -5 5 -13 10 -16 6 -3 10 -2 10 4 0 5 -4 13 -10 16 -5
3 -10 2 -10 -4z"/>
<path d="M6770 8899 c0 -17 4 -28 10 -24 6 3 10 17 10 31 0 13 -4 24 -10 24
-5 0 -10 -14 -10 -31z"/>
<path d="M4981 8418 c-1 -10 5 -18 13 -18 8 0 17 -6 19 -12 3 -8 6 -6 6 5 1 9
-5 17 -13 17 -8 0 -17 6 -19 13 -3 7 -6 5 -6 -5z"/>
<path d="M5330 8385 c0 -14 5 -25 10 -25 6 0 10 11 10 25 0 14 -4 25 -10 25
-5 0 -10 -11 -10 -25z"/>
<path d="M4970 8340 c0 -5 5 -10 10 -10 6 0 10 5 10 10 0 6 -4 10 -10 10 -5 0
-10 -4 -10 -10z"/>
<path d="M1890 8120 c0 -5 5 -10 11 -10 5 0 7 5 4 10 -3 6 -8 10 -11 10 -2 0
-4 -4 -4 -10z"/>
<path d="M9210 5440 c20 -13 50 -13 50 0 0 6 -15 10 -32 10 -25 0 -29 -3 -18
-10z"/>
<path d="M9005 5400 c-3 -5 1 -10 10 -10 9 0 13 5 10 10 -3 6 -8 10 -10 10 -2
0 -7 -4 -10 -10z"/>
<path d="M9244 5389 c-3 -6 -1 -16 5 -22 8 -8 11 -5 11 11 0 24 -5 28 -16 11z"/>
<path d="M9020 5320 c0 -5 5 -10 10 -10 6 0 10 5 10 10 0 6 -4 10 -10 10 -5 0
-10 -4 -10 -10z"/>
<path d="M8755 4518 c-3 -13 -4 -97 -3 -188 l3 -165 115 0 115 0 3 174 c2 119
-1 178 -9 187 -8 10 -39 14 -115 14 -99 0 -104 -1 -109 -22z"/>
<path d="M9150 3980 c0 -5 4 -10 9 -10 6 0 13 5 16 10 3 6 -1 10 -9 10 -9 0
-16 -4 -16 -10z"/>
<path d="M7120 5324 c0 -16 9 -18 28 -5 10 6 9 10 -7 14 -14 3 -21 0 -21 -9z"/>
<path d="M6817 5323 c-11 -10 -8 -43 3 -43 6 0 10 11 10 25 0 26 -2 29 -13 18z"/>
<path d="M3498 5167 c-11 -12 -14 -99 -13 -498 1 -266 4 -490 9 -497 5 -8 46
-12 141 -12 118 0 135 2 142 18 4 9 6 238 3 507 l-5 490 -132 3 c-101 2 -134
-1 -145 -11z"/>
<path d="M5570 5280 c0 -5 5 -10 11 -10 5 0 7 5 4 10 -3 6 -8 10 -11 10 -2 0
-4 -4 -4 -10z"/>
<path d="M5030 5276 c0 -9 5 -16 10 -16 6 0 10 4 10 9 0 6 -4 13 -10 16 -5 3
-10 -1 -10 -9z"/>
<path d="M4310 5262 c0 -5 7 -13 16 -16 10 -4 14 -1 12 6 -5 15 -28 23 -28 10z"/>
<path d="M4588 5169 c-16 -9 -18 -30 -18 -212 0 -111 4 -208 8 -215 7 -9 40
-12 133 -10 l124 3 3 216 2 216 -31 7 c-49 10 -202 6 -221 -5z"/>
<path d="M2290 2115 c0 -14 5 -25 10 -25 6 0 10 11 10 25 0 14 -4 25 -10 25
-5 0 -10 -11 -10 -25z"/>
<path d="M2235 2040 c-3 -5 -1 -10 4 -10 6 0 11 5 11 10 0 6 -2 10 -4 10 -3 0
-8 -4 -11 -10z"/>
<path d="M5174 3038 c-9 -27 -6 -62 8 -97 l10 -26 14 30 c17 38 18 87 2 103
-17 17 -26 15 -34 -10z"/>
</g>
</svg>
